<?xml version="1.0" encoding="UTF-8"?>
<svg version="1.1" xmlns="http://www.w3.org/2000/svg" width="512" height="512">
<path d="M0 0 C0.82668686 -0.01168213 1.65337372 -0.02336426 2.50511169 -0.03540039 C5.23163524 -0.06892931 7.95761475 -0.07971751 10.68432617 -0.08740234 C12.58615813 -0.09958783 14.48798818 -0.112074 16.38981628 -0.12484741 C20.37515566 -0.14731026 24.36030401 -0.15687606 28.34570312 -0.15917969 C33.44040592 -0.1644597 38.53350938 -0.21577715 43.62778187 -0.27869606 C47.55618984 -0.31965898 51.48421466 -0.32882261 55.412817 -0.32929611 C57.29025731 -0.33466623 59.16770244 -0.35146959 61.04493141 -0.38014603 C63.67825148 -0.41701629 66.30796926 -0.40911432 68.94140625 -0.390625 C69.70895233 -0.4110788 70.47649841 -0.43153259 71.26730347 -0.4526062 C76.78445609 -0.34673554 79.75595212 1.49588248 83.7765705 5.17877162 C87.27403478 9.38873013 88.3688223 14.29403861 89.72729492 19.51025391 C90.20972656 21.22668846 90.20972656 21.22668846 90.7019043 22.97779846 C91.71586049 26.60823229 92.69072798 30.24784468 93.66479492 33.88916016 C94.34843237 36.3631764 95.0346044 38.83649376 95.72338867 41.30908203 C97.39994057 47.34882924 99.04459313 53.39656828 100.66479492 59.45166016 C101.47716492 59.45225724 102.28953491 59.45285433 103.12652218 59.45346951 C151.25058067 59.48934623 199.37457656 59.54595866 247.49857701 59.62958111 C253.27403481 59.63959883 259.04949289 59.64944292 264.82495117 59.65917969 C265.974764 59.66112106 267.12457682 59.66306243 268.30923246 59.66506264 C286.93847216 59.69610242 305.56769953 59.71306881 324.19696023 59.72485438 C343.30553412 59.73725569 362.41404322 59.76473401 381.52257621 59.80627322 C393.31809116 59.83143783 405.11349868 59.84477527 416.90904085 59.84308973 C424.99246343 59.84306002 433.0757764 59.85764592 441.15915628 59.88382444 C445.82618219 59.89850417 450.49298331 59.90664449 455.16002846 59.89746284 C459.43129174 59.88920181 463.70210252 59.89925908 467.97329853 59.92399678 C469.51981844 59.92970056 471.06638095 59.92863389 472.61288823 59.9201726 C474.71374292 59.9096617 476.81306813 59.92369365 478.91382027 59.94385147 C480.08108056 59.94537035 481.24834086 59.94688923 482.45097268 59.94845414 C487.34763943 60.71515248 490.53994784 62.9654127 493.50710583 66.88588428 C498.30671425 77.52321302 492.35975878 91.1342819 489.29638672 101.61303711 C488.71863036 103.63259448 488.14226188 105.65254933 487.56716919 107.67286682 C486.00907437 113.13120414 484.43139034 118.5836987 482.84977317 124.03525949 C481.19469468 129.75168001 479.5570081 135.4730805 477.91719055 141.19389343 C475.16272565 150.79403383 472.39646763 160.39070942 469.62207031 169.98510742 C466.06307913 182.29297405 462.52302269 194.6062009 458.98912334 206.9212923 C455.94657487 217.52377397 452.89602775 228.12395129 449.84384561 238.72366309 C448.86474307 242.12490761 447.88660579 245.52642872 446.90854454 248.92797279 C445.37088942 254.27355801 443.82826678 259.61768627 442.28180313 264.9607296 C441.71549121 266.91983018 441.15070249 268.87937182 440.58756065 270.83938599 C439.81775986 273.51752981 439.04232994 276.19398075 438.26542664 278.87007141 C438.04459921 279.64303143 437.82377179 280.41599146 437.59625262 281.21237451 C435.4919871 288.41700903 433.50390259 294.36115604 427.66479492 299.45166016 C425.30227533 300.63291995 423.88419253 300.58168088 421.24886131 300.59032536 C420.3148126 300.5957998 419.38076388 300.60127424 418.41841066 300.60691458 C417.38535315 300.60789269 416.35229563 300.60887079 415.28793335 300.60987854 C413.64990735 300.61728551 413.64990735 300.61728551 411.97878993 300.62484211 C408.29518773 300.64028184 404.61160304 300.6485952 400.92797852 300.65698242 C398.2971735 300.66655586 395.66637005 300.67656562 393.03556824 300.6869812 C387.35906074 300.70876272 381.6825509 300.72690106 376.00602341 300.74258614 C367.79865244 300.76526953 359.59130741 300.79341446 351.38395841 300.82290541 C338.06905338 300.87060012 324.75413775 300.9138592 311.43920898 300.9543457 C298.50267716 300.99369108 285.56615476 301.035115 272.62963867 301.0793457 C271.43413511 301.08343211 271.43413511 301.08343211 270.21447997 301.08760107 C266.21627409 301.10128039 262.21806836 301.1150007 258.2198627 301.12874138 C225.03485952 301.24273566 191.84983679 301.34953848 158.66479492 301.45166016 C157.82337556 303.17956818 156.9951998 304.91392915 156.17260742 306.65087891 C155.70999512 307.61598389 155.24738281 308.58108887 154.77075195 309.57543945 C153.14092966 313.81405676 153.17988904 317.18774046 154.66479492 321.45166016 C156.07001345 324.2381786 157.19398713 325.29627463 159.66479492 327.45166016 C165.96368475 329.50317625 171.79447497 329.73467171 178.38113403 329.70321655 C179.43729255 329.70618669 180.49345106 329.70915683 181.58161438 329.71221697 C185.10825765 329.71983434 188.63473328 329.71337224 192.16137695 329.70703125 C194.6946626 329.70978212 197.22794739 329.71346261 199.76123047 329.71800232 C205.21009776 329.72610599 210.65892013 329.728448 216.1077919 329.72605515 C223.99238821 329.72295222 231.876913 329.73461431 239.76149128 329.75060494 C252.56372542 329.77654032 265.36595961 329.79657399 278.16821289 329.81005859 C278.93369363 329.81086896 279.69917436 329.81167933 280.48785149 329.81251426 C291.35878203 329.82374362 302.22970746 329.8290191 313.10064302 329.83190139 C313.86673014 329.83210537 314.63281726 329.83230936 315.42211914 329.83251953 C316.18726979 329.83271947 316.95242044 329.8329194 317.74075748 329.8331254 C330.49891866 329.83685795 343.257002 329.8559377 356.0151242 329.88761389 C363.88039311 329.90652557 371.74546241 329.9124919 379.6107478 329.90179671 C385.63422429 329.89473277 391.65747248 329.90824664 397.68092346 329.92941475 C400.15206772 329.93474828 402.6232376 329.93322026 405.0943718 329.92437935 C408.46405898 329.91329443 411.83279436 329.92664864 415.2024231 329.94613647 C416.18335375 329.93701182 417.1642844 329.92788716 418.17494023 329.918486 C423.98668074 329.98402685 427.21544517 330.62498914 431.66479492 334.45166016 C435.7210989 339.67425873 435.43877036 345.10506158 434.66479492 351.45166016 C432.47497973 356.07460334 430.15894536 358.15438927 425.66479492 360.45166016 C423.08940125 360.85038757 423.08940125 360.85038757 420.32373047 360.8840332 C419.28302902 360.90382736 418.24232758 360.92362152 417.17008972 360.9440155 C416.05845963 360.95040543 414.94682953 360.95679535 413.80151367 360.96337891 C412.08083427 360.99030571 412.08083427 360.99030571 410.32539368 361.01777649 C406.66773129 361.07188415 403.01019945 361.10577766 399.35229492 361.13916016 C396.86985488 361.17233271 394.38743207 361.20682231 391.9050293 361.24267578 C385.82506824 361.32761106 379.74509029 361.39595922 373.66479492 361.45166016 C374.46868652 361.83547852 375.27257812 362.21929687 376.10083008 362.61474609 C389.18136035 368.98188365 398.17633219 376.77129925 403.29370117 390.65478516 C404.86042262 395.53508463 405.20405196 400.09874267 405.16479492 405.20166016 C405.15907471 406.07346924 405.15335449 406.94527832 405.14746094 407.84350586 C404.79673795 420.62895299 399.73748685 429.97730919 391.08276367 439.12353516 C380.55237451 449.06463247 368.60059134 451.02127853 354.80541992 450.79150391 C342.46774043 450.24692868 332.77330117 444.05193997 324.47729492 435.26416016 C314.74354089 423.30088704 313.33477293 410.26605894 314.66479492 395.45166016 C317.28229165 383.76095726 324.12456966 374.48953125 333.66479492 367.45166016 C337.62479492 365.47166016 341.58479492 363.49166016 345.66479492 361.45166016 C305.07479492 361.45166016 264.48479492 361.45166016 222.66479492 361.45166016 C226.62479492 363.43166016 230.58479492 365.41166016 234.66479492 367.45166016 C244.55402998 374.37167079 250.73528112 383.81293868 253.66479492 395.45166016 C254.09934806 398.71464399 254.1901001 401.9123072 254.16479492 405.20166016 C254.15907471 406.07346924 254.15335449 406.94527832 254.14746094 407.84350586 C253.79673795 420.62895299 248.73748685 429.97730919 240.08276367 439.12353516 C229.55237451 449.06463247 217.60059134 451.02127853 203.80541992 450.79150391 C191.46774043 450.24692868 181.77330117 444.05193997 173.47729492 435.26416016 C163.74354089 423.30088704 162.33477293 410.26605894 163.66479492 395.45166016 C166.21612283 384.05649157 173.03024827 374.07715171 182.66479492 367.45166016 C184.72690527 366.35971755 186.80786861 365.30288573 188.90307617 364.27587891 C189.98242432 363.74438232 191.06177246 363.21288574 192.17382812 362.6652832 C192.99584717 362.2647876 193.81786621 361.86429199 194.66479492 361.45166016 C193.60679687 361.44231445 192.54879883 361.43296875 191.45874023 361.42333984 C187.47737802 361.38301791 183.49675483 361.31714987 179.51586914 361.24414062 C177.8034017 361.21617279 176.09081097 361.19483988 174.37817383 361.18066406 C158.57877527 361.04215385 147.04800793 358.94123383 135.03979492 348.07666016 C125.27918998 337.28862312 121.26154593 326.79616461 121.38354492 312.21728516 C122.04410215 303.37315788 125.20917098 295.47741539 129.80932617 287.96337891 C131.84405665 281.98926156 129.08190507 274.76395204 127.37869263 268.8868103 C127.14466984 268.06149107 126.91064705 267.23617183 126.66953266 266.38584292 C125.88856873 263.63710705 125.09920258 260.89085862 124.30981445 258.14453125 C123.74573482 256.16576828 123.18217521 254.18685701 122.61909485 252.20780945 C121.08867144 246.83453551 119.55092345 241.4633825 118.01183176 236.09258604 C116.39123413 230.43275825 114.77728351 224.77103548 113.16256714 219.10952759 C110.44094192 209.57044493 107.71504172 200.03259289 104.98608398 190.49560547 C101.17634813 177.18157346 97.37396146 163.86545165 93.57325959 150.54883838 C88.15833229 131.57802927 82.73997369 112.60819785 77.3137207 93.640625 C77.02973805 92.64758134 76.74575539 91.65453767 76.4531672 90.63140178 C73.44016086 80.09749404 70.41387091 69.56769626 67.35272217 59.04766846 C67.09101837 58.1475013 66.82931456 57.24733414 66.55968034 56.31988919 C65.33195829 52.09787562 64.10145586 47.87671327 62.8655262 43.65709496 C62.43718797 42.1870823 62.0089339 40.71704512 61.58078003 39.24697876 C61.38450351 38.58096279 61.18822698 37.91494683 60.98600268 37.22874856 C59.66479492 32.67852703 59.66479492 32.67852703 59.66479492 30.45166016 C58.82620941 30.4605426 57.9876239 30.46942505 57.12362671 30.47857666 C49.20826694 30.55883227 41.29304445 30.61968017 33.37737083 30.65890884 C29.30812553 30.67975505 25.23921733 30.70801769 21.17016602 30.75341797 C17.24088874 30.79698275 13.31193506 30.82081958 9.38243484 30.83116913 C7.88573744 30.83854154 6.3890571 30.85293836 4.89249802 30.87458038 C2.7906589 30.90375773 0.69014486 30.90761048 -1.41186523 30.90576172 C-2.60655426 30.91464417 -3.80124329 30.92352661 -5.03213501 30.93267822 C-9.97283075 30.21317671 -13.14587676 27.9829518 -16.18286133 24.07275391 C-18.27089189 19.32336913 -17.95441465 14.52917864 -17.33520508 9.45166016 C-13.59337574 1.55224266 -8.2844775 0.00226476 0 0 Z M109.66479492 90.45166016 C110.39277533 95.54752301 111.24497897 99.92461125 112.6385498 104.8164978 C112.83879273 105.52414422 113.03903565 106.23179063 113.24534655 106.96088088 C113.91271061 109.31502545 114.58658772 111.66725304 115.26049805 114.01953125 C115.74216042 115.71339157 116.22342769 117.40736429 116.70433044 119.10144043 C118.00790116 123.68894112 119.31722572 128.27478105 120.62778282 132.86029005 C121.99821113 137.65828012 123.36394207 142.45760722 124.73034668 147.25674438 C127.02380746 155.30912544 129.32096124 163.36044589 131.62036133 171.41113281 C134.2818408 180.72969139 136.93768654 190.04984135 139.59049463 199.3708719 C142.14122232 208.33281155 144.69568097 217.29368343 147.25193787 226.25404739 C148.34082518 230.07108974 149.42843077 233.88849387 150.51502991 237.7061882 C151.79242086 242.19351543 153.07307487 246.67989848 154.35630989 251.16555786 C154.8279118 252.81607304 155.29837726 254.46691339 155.76765251 256.11809158 C156.4057354 258.36252008 157.04783963 260.60575802 157.69104004 262.84872437 C158.05016228 264.10709799 158.40928452 265.36547161 158.77928925 266.66197777 C159.3911731 269.33138368 159.3911731 269.33138368 160.66479492 270.45166016 C163.83768843 270.54974178 166.98883393 270.58156168 170.16212463 270.57191467 C171.17161649 270.5727691 172.18110835 270.57362352 173.22119087 270.57450384 C176.63152765 270.57616169 180.04181613 270.57063231 183.45214844 270.56518555 C185.88576252 270.56490371 188.31937669 270.56506133 190.75299072 270.56562805 C196.00663954 270.56585637 201.26027308 270.563005 206.51391792 270.55739021 C214.10988784 270.54927735 221.70585174 270.54666021 229.30182552 270.54540222 C241.62456025 270.54321136 253.94728838 270.53655037 266.27001953 270.52709961 C278.24332649 270.51792636 290.21663165 270.5108451 302.18994141 270.5065918 C302.92746659 270.50632907 303.66499177 270.50606635 304.42486621 270.50579567 C308.12466116 270.50449067 311.82445613 270.50322695 315.5242511 270.50198376 C346.23777051 270.4916101 376.95128172 270.47391675 407.66479492 270.45166016 C409.61336631 265.38869468 411.35295198 260.35835881 412.8478241 255.13861084 C413.04639788 254.44856091 413.24497167 253.75851098 413.44956285 253.04755044 C414.1066998 250.76093468 414.75917665 248.47301729 415.41162109 246.18505859 C415.88469749 244.53514085 416.35804769 242.88530159 416.83164978 241.23553467 C418.11145114 236.77397264 419.38704385 232.31121796 420.66157317 227.84814739 C421.72665485 224.11976558 422.79367153 220.39193864 423.86064225 216.66409707 C426.37648546 207.87378629 428.88877542 199.0824653 431.39892578 190.29052734 C433.98911344 181.21851724 436.58563642 172.14833725 439.18519992 163.07900977 C441.41833816 155.28715274 443.64740352 147.49413846 445.87322408 139.70018792 C447.20212427 135.04709507 448.53261336 130.3944713 449.86708641 125.74297333 C451.12022086 121.37437489 452.36827804 117.00435801 453.61240578 112.63318634 C454.07013881 111.02822435 454.52968194 109.42377735 454.9911499 107.81988525 C455.61989317 105.63354043 456.24212115 103.44544402 456.86271667 101.2567749 C457.21278872 100.03196285 457.56286077 98.8071508 457.92354107 97.54522324 C458.82013884 94.33353325 458.82013884 94.33353325 458.66479492 90.45166016 C343.49479492 90.45166016 228.32479492 90.45166016 109.66479492 90.45166016 Z M195.78979492 397.57666016 C194.09995241 401.89514658 194.00518509 405.87836535 194.66479492 410.45166016 C196.8277833 414.85774758 199.06159971 417.65040986 203.66479492 419.45166016 C208.70804876 420.13592073 212.49556377 420.02564636 217.10229492 417.76416016 C220.46135504 414.73281322 222.35835123 412.71026367 222.98120117 408.11962891 C223.24693144 402.40214206 222.63326644 398.84915562 218.66479492 394.45166016 C214.82766296 391.06595549 211.0307803 390.93874843 206.10229492 391.10009766 C201.43953347 391.77261133 198.812892 394.15048347 195.78979492 397.57666016 Z M346.78979492 397.57666016 C345.09995241 401.89514658 345.00518509 405.87836535 345.66479492 410.45166016 C347.8277833 414.85774758 350.06159971 417.65040986 354.66479492 419.45166016 C359.70804876 420.13592073 363.49556377 420.02564636 368.10229492 417.76416016 C371.46135504 414.73281322 373.35835123 412.71026367 373.98120117 408.11962891 C374.24693144 402.40214206 373.63326644 398.84915562 369.66479492 394.45166016 C365.82766296 391.06595549 362.0307803 390.93874843 357.10229492 391.10009766 C352.43953347 391.77261133 349.812892 394.15048347 346.78979492 397.57666016 Z " fill="#000000" transform="translate(17.335205078125,30.54833984375)"/>
</svg>
